<svg version="1.1" id="Layer_1" xmlns="http://www.w3.org/2000/svg" xmlns:xlink="http://www.w3.org/1999/xlink" x="0px" y="0px"
	 width="100%" viewBox="0 0 1337 710" enable-background="new 0 0 1337 710" xml:space="preserve">
<path fill="#FFFFFF" opacity="1.000000" stroke="none" 
	d="
M1338.000000,351.000000 
	C1338.000000,470.967072 1338.000000,590.934143 1338.000000,711.000000 
	C952.638611,711.000000 567.277283,711.000000 181.597870,710.613525 
	C183.340775,709.822083 185.409607,709.453430 187.461395,709.006470 
	C207.923386,704.549011 228.399658,700.155029 248.836929,695.586670 
	C264.071381,692.181274 279.235901,688.463745 294.464752,685.032288 
	C315.046661,680.394775 335.656128,675.878906 356.261932,671.347900 
	C370.578491,668.199890 384.927216,665.196167 399.227844,661.978210 
	C413.969421,658.661133 428.487823,655.702942 439.125946,642.767639 
	C449.447662,630.217163 454.694672,616.963867 450.919434,601.039917 
	C447.101440,584.935547 437.887970,572.790344 422.805054,565.284729 
	C413.624115,560.716125 404.242371,556.355835 395.683197,550.778076 
	C382.395386,542.118835 375.814331,529.484619 375.940796,513.296326 
	C376.163422,484.803192 375.988159,456.307068 376.039368,427.812286 
	C376.042511,426.077545 376.249969,424.209656 376.910980,422.633881 
	C379.147858,417.301331 381.574493,412.045471 384.032623,406.809143 
	C390.076385,393.934845 396.178101,381.087769 402.543427,367.622711 
	C403.461456,373.373993 403.907440,378.376801 405.088440,383.199615 
	C411.612305,409.841217 420.979340,435.380371 434.993896,459.088623 
	C447.728241,480.631165 463.341248,499.704620 482.402832,516.023743 
	C497.875732,529.270508 514.874146,539.912476 533.558105,547.911133 
	C554.969482,557.077393 577.526672,561.087646 600.636292,561.854858 
	C608.605652,562.119446 616.728699,561.230286 624.609436,559.870789 
	C636.175781,557.875427 647.860718,555.839783 659.003845,552.282288 
	C677.776245,546.289185 694.899475,536.845886 710.868835,525.116333 
	C729.273621,511.598053 744.803406,495.442902 757.976257,476.924377 
	C762.298523,470.848114 766.251038,464.508789 770.997009,457.347656 
	C770.997009,473.269012 771.241638,488.037628 770.879883,502.791321 
	C770.729553,508.920349 769.857178,515.167236 768.307495,521.097717 
	C765.230103,532.874512 762.045288,544.686707 757.839233,556.091309 
	C750.223755,576.740601 741.570496,596.953796 729.050598,615.289185 
	C725.638733,620.285828 723.776611,626.393799 720.118774,631.159302 
	C708.981934,645.668823 711.011230,658.896606 719.898254,671.013611 
	C733.386047,689.403564 752.137024,699.163391 775.408508,698.961060 
	C778.329590,698.935669 781.238403,698.239624 784.165283,698.021362 
	C798.083191,696.983643 812.005005,695.998657 825.926147,695.004700 
	C840.013306,693.998718 854.097473,692.945312 868.190002,692.020020 
	C884.440002,690.953064 900.696411,689.980469 916.952698,689.010803 
	C928.786682,688.304810 940.618896,687.524963 952.462585,687.036926 
	C971.625977,686.247070 990.794983,685.550781 1009.967773,685.050842 
	C1020.292236,684.781677 1030.653198,684.561035 1040.955078,685.113037 
	C1054.303955,685.828369 1066.505249,683.625061 1078.574585,677.176453 
	C1095.627197,668.065491 1104.461304,654.339783 1104.835938,635.603699 
	C1105.240601,615.369507 1104.410156,595.107483 1103.952393,574.861328 
	C1103.834595,569.655762 1103.092285,564.464355 1102.603516,558.884338 
	C1108.247070,559.669128 1113.029053,560.748291 1117.842407,560.914062 
	C1126.834351,561.223694 1135.844604,560.978149 1144.847046,561.008728 
	C1158.792480,561.056091 1172.216797,558.027405 1185.488281,554.135193 
	C1210.081909,546.922546 1231.990845,534.799805 1251.935547,518.714661 
	C1267.500244,506.161987 1280.649292,491.550385 1292.238647,475.375397 
	C1303.829834,459.197968 1312.977905,441.733643 1320.321411,423.270813 
	C1328.157715,403.569183 1333.463379,383.236023 1336.033691,362.181213 
	C1336.491699,358.430054 1337.334839,354.725891 1338.000000,351.000000 
z"/>
<path fill="#000202" opacity="1.000000" stroke="none" 
	d="
M1338.000000,350.531372 
	C1337.334839,354.725891 1336.491699,358.430054 1336.033691,362.181213 
	C1333.463379,383.236023 1328.157715,403.569183 1320.321411,423.270813 
	C1312.977905,441.733643 1303.829834,459.197968 1292.238647,475.375397 
	C1280.649292,491.550385 1267.500244,506.161987 1251.935547,518.714661 
	C1231.990845,534.799805 1210.081909,546.922546 1185.488281,554.135193 
	C1172.216797,558.027405 1158.792480,561.056091 1144.847046,561.008728 
	C1135.844604,560.978149 1126.834351,561.223694 1117.842407,560.914062 
	C1113.029053,560.748291 1108.247070,559.669128 1102.603516,558.884338 
	C1103.092285,564.464355 1103.834595,569.655762 1103.952393,574.861328 
	C1104.410156,595.107483 1105.240601,615.369507 1104.835938,635.603699 
	C1104.461304,654.339783 1095.627197,668.065491 1078.574585,677.176453 
	C1066.505249,683.625061 1054.303955,685.828369 1040.955078,685.113037 
	C1030.653198,684.561035 1020.292236,684.781677 1009.967773,685.050842 
	C990.794983,685.550781 971.625977,686.247070 952.462585,687.036926 
	C940.618896,687.524963 928.786682,688.304810 916.952698,689.010803 
	C900.696411,689.980469 884.440002,690.953064 868.190002,692.020020 
	C854.097473,692.945312 840.013306,693.998718 825.926147,695.004700 
	C812.005005,695.998657 798.083191,696.983643 784.165283,698.021362 
	C781.238403,698.239624 778.329590,698.935669 775.408508,698.961060 
	C752.137024,699.163391 733.386047,689.403564 719.898254,671.013611 
	C711.011230,658.896606 708.981934,645.668823 720.118774,631.159302 
	C723.776611,626.393799 725.638733,620.285828 729.050598,615.289185 
	C741.570496,596.953796 750.223755,576.740601 757.839233,556.091309 
	C762.045288,544.686707 765.230103,532.874512 768.307495,521.097717 
	C769.857178,515.167236 770.729553,508.920349 770.879883,502.791321 
	C771.241638,488.037628 770.997009,473.269012 770.997009,457.347656 
	C766.251038,464.508789 762.298523,470.848114 757.976257,476.924377 
	C744.803406,495.442902 729.273621,511.598053 710.868835,525.116333 
	C694.899475,536.845886 677.776245,546.289185 659.003845,552.282288 
	C647.860718,555.839783 636.175781,557.875427 624.609436,559.870789 
	C616.728699,561.230286 608.605652,562.119446 600.636292,561.854858 
	C577.526672,561.087646 554.969482,557.077393 533.558105,547.911133 
	C514.874146,539.912476 497.875732,529.270508 482.402832,516.023743 
	C463.341248,499.704620 447.728241,480.631165 434.993896,459.088623 
	C420.979340,435.380371 411.612305,409.841217 405.088440,383.199615 
	C403.907440,378.376801 403.461456,373.373993 402.543427,367.622711 
	C396.178101,381.087769 390.076385,393.934845 384.032623,406.809143 
	C381.574493,412.045471 379.147858,417.301331 376.910980,422.633881 
	C376.249969,424.209656 376.042511,426.077545 376.039368,427.812286 
	C375.988159,456.307068 376.163422,484.803192 375.940796,513.296326 
	C375.814331,529.484619 382.395386,542.118835 395.683197,550.778076 
	C404.242371,556.355835 413.624115,560.716125 422.805054,565.284729 
	C437.887970,572.790344 447.101440,584.935547 450.919434,601.039917 
	C454.694672,616.963867 449.447662,630.217163 439.125946,642.767639 
	C428.487823,655.702942 413.969421,658.661133 399.227844,661.978210 
	C384.927216,665.196167 370.578491,668.199890 356.261932,671.347900 
	C335.656128,675.878906 315.046661,680.394775 294.464752,685.032288 
	C279.235901,688.463745 264.071381,692.181274 248.836929,695.586670 
	C228.399658,700.155029 207.923386,704.549011 187.461395,709.006470 
	C185.409607,709.453430 183.340775,709.822083 181.139923,710.613525 
	C176.975449,711.000000 172.950912,711.000000 168.334320,710.622559 
	C161.692825,707.806946 155.222488,706.076294 149.682831,702.781128 
	C138.659561,696.224060 130.452255,687.090454 127.465431,674.048218 
	C125.491394,665.428528 126.752068,657.166077 128.902420,648.738708 
	C132.207458,635.786133 138.062515,624.511841 150.316513,618.427979 
	C172.949860,607.191284 188.696167,589.482849 200.662659,567.801514 
	C214.233292,543.213623 218.589722,517.063721 212.873016,489.634979 
	C208.140564,466.928741 199.641495,445.377197 189.151901,424.757263 
	C178.372940,403.568512 166.716537,382.825714 155.412994,361.904541 
	C149.917084,351.732391 144.446609,341.544617 138.795380,331.458740 
	C127.173012,310.716034 115.462105,290.022797 103.732635,269.340363 
	C100.007072,262.771088 96.931183,255.595901 92.098717,249.946167 
	C84.388252,240.931656 76.077988,232.195755 66.887634,224.739395 
	C54.745762,214.888382 41.803391,205.929596 28.643175,197.460480 
	C19.460283,191.550903 10.879159,185.491745 6.609240,175.067719 
	C4.461906,169.825516 2.852605,164.362930 1.000000,159.000000 
	C1.000000,153.311966 1.000000,147.623917 1.371108,141.346619 
	C2.984847,132.992233 7.218099,126.805931 11.982381,120.810486 
	C20.464663,110.136276 31.082964,102.850281 44.858650,102.136627 
	C62.414398,101.227142 80.021988,101.292030 97.608353,101.006432 
	C120.526543,100.634254 143.445358,100.291817 166.364777,100.006538 
	C196.282959,99.634140 226.208710,99.610825 256.118225,98.895432 
	C275.136353,98.440544 288.391907,108.119377 298.904846,122.239723 
	C311.491394,139.145187 309.760406,158.683563 297.367828,175.911224 
	C285.603607,192.265320 278.613342,209.765625 281.197113,229.993011 
	C282.152893,237.475510 285.316193,244.676010 287.472748,252.005127 
	C287.973389,251.925476 288.474030,251.845825 288.974670,251.766174 
	C297.632324,233.636261 306.658051,215.669876 314.812408,197.316345 
	C319.872986,185.926163 323.980255,174.065674 327.753723,162.174576 
	C329.162109,157.736404 330.501129,152.916946 328.455994,147.749619 
	C321.722229,130.735886 308.336365,119.099976 295.420746,107.424477 
	C285.669708,98.609734 275.902893,90.066963 268.561554,79.074730 
	C258.552124,64.087608 262.832062,45.403412 273.036621,34.268139 
	C279.496155,27.219404 287.462189,22.683527 295.542755,18.154884 
	C302.310699,14.361858 309.557251,12.467816 317.450317,12.944400 
	C326.689209,13.502244 335.951691,13.672845 345.204559,13.994277 
	C355.123260,14.338839 365.042389,14.670446 374.961792,14.995311 
	C395.466431,15.666850 415.971558,16.325140 436.476166,16.999050 
	C446.228973,17.319592 455.979858,17.706150 465.733795,17.986237 
	C478.818268,18.361959 491.904572,18.676708 504.990662,18.993374 
	C519.409241,19.342278 533.831421,19.579021 548.245239,20.065769 
	C551.267944,20.167845 554.271973,21.094797 557.265747,21.730421 
	C565.798279,23.541996 572.393127,28.704023 578.755920,34.253826 
	C583.769104,38.626453 587.896606,43.511967 590.097473,50.033432 
	C594.243958,62.320007 593.934204,74.539505 590.797302,85.755829 
	C606.517883,87.154823 622.562195,87.544128 638.225769,90.188469 
	C672.952026,96.050995 702.714783,112.232750 728.090942,136.582123 
	C729.104309,137.554504 730.413025,138.845032 731.620728,138.885223 
	C738.350403,139.109116 745.091431,138.992752 751.651062,138.992752 
	C751.857788,138.246216 751.988464,138.042847 751.933105,137.934311 
	C750.979248,136.062286 749.854614,134.263199 749.053650,132.329514 
	C742.042786,115.403625 731.166443,102.010689 714.461853,93.736076 
	C712.182495,92.607002 710.154175,90.719902 708.404846,88.819885 
	C703.404785,83.389229 698.025818,78.168243 693.898376,72.113258 
	C689.887756,66.229515 685.556641,59.721306 684.326050,52.949463 
	C681.121765,35.316471 692.474121,19.706963 705.490967,12.239450 
	C712.753235,8.073253 720.481628,4.719746 728.000000,1.000004 
	C741.354248,1.000000 754.708435,1.000000 768.699951,1.407949 
	C781.578857,2.209566 793.820312,2.605930 806.061951,2.996083 
	C816.642761,3.333302 827.223511,3.673625 837.804810,3.993989 
	C849.218323,4.339551 860.632812,4.654093 872.046326,4.999653 
	C882.627625,5.320018 893.206726,5.727662 903.789551,5.981832 
	C920.033142,6.371959 936.279663,6.637455 952.523804,7.005185 
	C965.437927,7.297529 978.353516,7.579504 991.260986,8.065900 
	C993.945618,8.167068 996.628784,9.030050 999.258484,9.741898 
	C1010.557983,12.800542 1017.697021,20.541353 1024.224731,29.956415 
	C1031.825806,40.919655 1029.461792,53.063030 1030.399414,64.759247 
	C1030.801147,69.771255 1028.030884,74.982330 1027.062500,80.170242 
	C1024.632202,93.188248 1015.943298,100.620399 1004.418762,105.067650 
	C992.137939,109.806740 979.315735,113.476082 969.052979,122.109718 
	C963.423889,126.845268 958.684021,132.637909 953.543213,137.953873 
	C970.380798,138.996933 986.200928,138.752457 1002.005371,139.142685 
	C1006.884460,139.263168 1010.546814,137.727707 1013.818237,134.654617 
	C1027.965088,121.365425 1043.911621,110.905823 1061.532837,102.704605 
	C1080.332397,93.954948 1100.043335,88.536446 1120.544312,87.280670 
	C1134.110840,86.449677 1147.889893,87.828651 1161.490112,89.107834 
	C1180.754883,90.919800 1198.817871,97.403038 1215.928223,106.119102 
	C1229.892944,113.232819 1243.004150,121.808266 1254.873657,132.249451 
	C1267.022217,142.936111 1278.356445,154.304779 1288.040527,167.293915 
	C1299.241821,182.318024 1308.676880,198.299408 1316.281372,215.491028 
	C1326.255859,238.040771 1332.761841,261.443451 1336.027100,285.822845 
	C1336.528809,289.569427 1337.334717,293.275299 1338.000000,297.000000 
	C1338.000000,314.687561 1338.000000,332.375122 1338.000000,350.531372 
M1085.829468,551.870605 
	C1085.593994,547.107971 1085.358521,542.345398 1085.125000,537.620911 
	C1085.970703,537.520813 1086.314331,537.391418 1086.613037,537.459656 
	C1088.234131,537.829651 1089.850220,538.225708 1091.457031,538.654114 
	C1119.203979,546.051392 1147.039307,546.686340 1174.850098,539.251892 
	C1222.080078,526.626526 1257.671265,497.939514 1283.387451,457.287109 
	C1322.214355,395.909393 1330.832031,329.239471 1313.153931,259.358551 
	C1299.983154,207.294662 1272.549438,164.053085 1227.678711,133.314575 
	C1192.351562,109.113838 1153.232910,99.466484 1110.581055,105.825523 
	C1074.898071,111.145531 1045.086792,127.903763 1019.434387,152.795105 
	C1017.761169,154.418701 1014.938477,155.694031 1012.640503,155.710236 
	C984.644104,155.907547 956.645874,155.838379 928.648071,155.838348 
	C927.597412,155.838348 926.546753,155.838348 925.431946,155.838348 
	C938.044189,122.051369 960.767334,99.871872 995.198975,90.118759 
	C1003.155151,87.865120 1008.323975,82.973503 1011.159607,74.615326 
	C1013.740112,67.008972 1012.965027,59.564594 1013.116821,52.021442 
	C1013.374512,39.214661 1001.407654,24.735712 986.118835,24.995735 
	C968.822632,25.289900 951.501709,24.330500 934.195435,23.791548 
	C896.768860,22.626007 859.345032,21.373756 821.919617,20.171114 
	C800.793091,19.492224 779.667480,18.774269 758.538025,18.201107 
	C743.987488,17.806408 729.363586,16.031624 716.318420,25.744144 
	C710.545105,30.042595 705.180298,34.323608 702.476379,40.927601 
	C701.237976,43.952374 700.415161,48.249722 701.628235,50.982647 
	C706.549866,62.071095 713.768738,72.548866 723.933960,78.500900 
	C743.112488,89.730446 756.347656,105.329628 765.027344,125.185432 
	C769.300171,134.959824 772.520325,145.194412 776.444519,155.838440 
	C759.516113,155.838440 743.859802,155.714966 728.208252,155.929886 
	C724.538879,155.980270 722.116394,154.773163 719.547363,152.265198 
	C678.971619,112.654022 630.403076,97.842407 574.565796,105.948837 
	C568.068298,106.892128 561.619080,108.167862 554.981079,109.318321 
	C555.088867,108.436050 555.021240,108.043976 555.184631,107.822159 
	C555.773926,107.022217 556.459351,106.294014 557.075989,105.513084 
	C562.994690,98.017761 570.098572,91.658096 573.502747,82.045357 
	C581.517944,59.411945 569.721069,40.147560 547.872253,37.847523 
	C526.408264,35.588005 504.669952,35.885941 483.048035,35.184254 
	C428.648438,33.418861 374.251038,31.558029 319.842896,30.103582 
	C304.429779,29.691559 292.548096,37.470024 283.537018,49.460152 
	C278.840454,55.709377 278.043182,62.993713 283.241150,69.345215 
	C289.403961,76.875717 295.822937,84.340187 303.019958,90.850388 
	C317.385986,103.845383 331.740479,116.722588 341.272034,133.953979 
	C345.757965,142.063812 348.051300,150.620255 345.848175,159.858170 
	C344.308136,166.315704 342.791534,172.826706 340.567688,179.065445 
	C327.240326,216.453796 308.460815,251.267883 289.624603,286.044952 
	C289.435791,286.393555 288.873108,286.539642 288.256775,286.921753 
	C284.044250,279.825989 279.648865,272.949768 275.775696,265.790985 
	C267.081146,249.720901 261.711578,232.898483 263.739105,214.184830 
	C265.600159,197.007767 272.009796,181.791672 281.743866,167.747925 
	C285.730652,161.996033 289.138824,156.079178 290.089294,148.816971 
	C291.992188,134.278137 271.797333,115.535858 257.808472,116.029091 
	C231.353394,116.961884 204.870041,117.127647 178.396957,117.507179 
	C136.600357,118.106400 94.803528,118.832664 53.004570,119.027885 
	C41.631317,119.081017 32.956158,122.645363 25.686718,131.558060 
	C13.097857,146.992661 16.665865,169.067734 33.535259,180.080276 
	C48.569366,189.894745 63.422535,200.058441 77.727005,210.897522 
	C91.031700,220.979050 103.071632,232.607422 111.374702,247.399139 
	C132.204453,284.506866 152.913269,321.682556 173.618698,358.859894 
	C190.355026,388.910583 207.393341,418.807037 219.423508,451.204742 
	C229.818497,479.198761 236.734253,507.698578 229.900116,537.617432 
	C220.621292,578.238708 199.595963,610.995117 162.434235,631.391235 
	C148.117325,639.249023 144.669083,651.601196 143.732361,665.741638 
	C142.764343,680.354248 166.003891,696.874878 182.262863,693.093445 
	C257.889343,675.504517 333.704224,658.718262 409.535767,642.026733 
	C420.891266,639.527161 436.974274,621.663086 434.963623,609.829102 
	C432.802521,597.109375 427.331268,586.868652 414.914093,580.844238 
	C404.044464,575.570618 393.135529,569.974548 383.336304,562.988708 
	C366.881500,551.258057 358.723419,534.921570 359.041809,514.186829 
	C359.507446,483.863037 359.120331,453.526672 359.236328,423.196167 
	C359.246094,420.646210 359.879364,417.900238 360.952026,415.582764 
	C374.629089,386.033630 388.430603,356.542053 402.221436,327.045654 
	C406.181458,318.575745 410.208496,310.137177 414.204803,301.684235 
	C415.167999,303.858948 415.094940,305.807220 415.179047,307.748688 
	C416.273865,333.016388 416.871399,358.322418 423.032166,383.078949 
	C436.067841,435.461517 461.547180,480.010773 505.725677,512.250122 
	C542.475647,539.068542 583.623657,549.633728 628.832458,542.078247 
	C668.472656,535.453369 700.876343,515.632812 727.938660,486.491394 
	C750.532776,462.161438 765.496033,433.461395 776.022461,402.208557 
	C779.648193,391.443787 783.727539,380.831818 787.599670,370.150055 
	C787.907227,370.208160 788.214783,370.266296 788.522339,370.324402 
	C788.522339,371.050934 788.522278,371.777466 788.522278,372.503998 
	C788.522217,413.500732 788.623474,454.497986 788.431091,495.493805 
	C788.395386,503.114746 787.790100,510.843170 786.406494,518.329529 
	C778.089966,563.330505 757.945068,603.381592 733.755737,641.609070 
	C729.662842,648.077087 728.964661,653.759521 733.315002,659.960510 
	C743.624573,674.655762 758.312073,682.365295 775.720642,681.553833 
	C814.284485,679.756042 852.774536,676.407104 891.303162,673.815918 
	C941.970276,670.408447 992.659485,667.337280 1043.476318,668.104248 
	C1052.164307,668.235291 1059.749268,666.149841 1067.808838,662.847412 
	C1083.064697,656.596191 1088.331421,645.130981 1088.070923,630.184875 
	C1087.621216,604.389099 1086.608154,578.603271 1085.829468,551.870605 
z"/>
<path fill="#FFFFFF" opacity="1.000000" stroke="none" 
	d="
M1.000000,159.468658 
	C2.852605,164.362930 4.461906,169.825516 6.609240,175.067719 
	C10.879159,185.491745 19.460283,191.550903 28.643175,197.460480 
	C41.803391,205.929596 54.745762,214.888382 66.887634,224.739395 
	C76.077988,232.195755 84.388252,240.931656 92.098717,249.946167 
	C96.931183,255.595901 100.007072,262.771088 103.732635,269.340363 
	C115.462105,290.022797 127.173012,310.716034 138.795380,331.458740 
	C144.446609,341.544617 149.917084,351.732391 155.412994,361.904541 
	C166.716537,382.825714 178.372940,403.568512 189.151901,424.757263 
	C199.641495,445.377197 208.140564,466.928741 212.873016,489.634979 
	C218.589722,517.063721 214.233292,543.213623 200.662659,567.801514 
	C188.696167,589.482849 172.949860,607.191284 150.316513,618.427979 
	C138.062515,624.511841 132.207458,635.786133 128.902420,648.738708 
	C126.752068,657.166077 125.491394,665.428528 127.465431,674.048218 
	C130.452255,687.090454 138.659561,696.224060 149.682831,702.781128 
	C155.222488,706.076294 161.692825,707.806946 167.871155,710.622559 
	C112.367218,711.000000 56.734440,711.000000 1.000000,711.000000 
	C1.000000,527.312439 1.000000,343.624878 1.000000,159.468658 
z"/>
<path fill="#FFFFFF" opacity="1.000000" stroke="none" 
	d="
M727.531372,1.000004 
	C720.481628,4.719746 712.753235,8.073253 705.490967,12.239450 
	C692.474121,19.706963 681.121765,35.316471 684.326050,52.949463 
	C685.556641,59.721306 689.887756,66.229515 693.898376,72.113258 
	C698.025818,78.168243 703.404785,83.389229 708.404846,88.819885 
	C710.154175,90.719902 712.182495,92.607002 714.461853,93.736076 
	C731.166443,102.010689 742.042786,115.403625 749.053650,132.329514 
	C749.854614,134.263199 750.979248,136.062286 751.933105,137.934311 
	C751.988464,138.042847 751.857788,138.246216 751.651062,138.992752 
	C745.091431,138.992752 738.350403,139.109116 731.620728,138.885223 
	C730.413025,138.845032 729.104309,137.554504 728.090942,136.582123 
	C702.714783,112.232750 672.952026,96.050995 638.225769,90.188469 
	C622.562195,87.544128 606.517883,87.154823 590.797302,85.755829 
	C593.934204,74.539505 594.243958,62.320007 590.097473,50.033432 
	C587.896606,43.511967 583.769104,38.626453 578.755920,34.253826 
	C572.393127,28.704023 565.798279,23.541996 557.265747,21.730421 
	C554.271973,21.094797 551.267944,20.167845 548.245239,20.065769 
	C533.831421,19.579021 519.409241,19.342278 504.990662,18.993374 
	C491.904572,18.676708 478.818268,18.361959 465.733795,17.986237 
	C455.979858,17.706150 446.228973,17.319592 436.476166,16.999050 
	C415.971558,16.325140 395.466431,15.666850 374.961792,14.995311 
	C365.042389,14.670446 355.123260,14.338839 345.204559,13.994277 
	C335.951691,13.672845 326.689209,13.502244 317.450317,12.944400 
	C309.557251,12.467816 302.310699,14.361858 295.542755,18.154884 
	C287.462189,22.683527 279.496155,27.219404 273.036621,34.268139 
	C262.832062,45.403412 258.552124,64.087608 268.561554,79.074730 
	C275.902893,90.066963 285.669708,98.609734 295.420746,107.424477 
	C308.336365,119.099976 321.722229,130.735886 328.455994,147.749619 
	C330.501129,152.916946 329.162109,157.736404 327.753723,162.174576 
	C323.980255,174.065674 319.872986,185.926163 314.812408,197.316345 
	C306.658051,215.669876 297.632324,233.636261 288.974670,251.766174 
	C288.474030,251.845825 287.973389,251.925476 287.472748,252.005127 
	C285.316193,244.676010 282.152893,237.475510 281.197113,229.993011 
	C278.613342,209.765625 285.603607,192.265320 297.367828,175.911224 
	C309.760406,158.683563 311.491394,139.145187 298.904846,122.239723 
	C288.391907,108.119377 275.136353,98.440544 256.118225,98.895432 
	C226.208710,99.610825 196.282959,99.634140 166.364777,100.006538 
	C143.445358,100.291817 120.526543,100.634254 97.608353,101.006432 
	C80.021988,101.292030 62.414398,101.227142 44.858650,102.136627 
	C31.082964,102.850281 20.464663,110.136276 11.982381,120.810486 
	C7.218099,126.805931 2.984847,132.992233 1.371108,140.878693 
	C1.000000,94.356888 1.000000,47.713768 1.000000,1.000000 
	C243.020889,1.000000 485.041779,1.000000 727.531372,1.000004 
z"/>
<path fill="#FFFFFF" opacity="1.000000" stroke="none" 
	d="
M1338.000000,296.531342 
	C1337.334717,293.275299 1336.528809,289.569427 1336.027100,285.822845 
	C1332.761841,261.443451 1326.255859,238.040771 1316.281372,215.491028 
	C1308.676880,198.299408 1299.241821,182.318024 1288.040527,167.293915 
	C1278.356445,154.304779 1267.022217,142.936111 1254.873657,132.249451 
	C1243.004150,121.808266 1229.892944,113.232819 1215.928223,106.119102 
	C1198.817871,97.403038 1180.754883,90.919800 1161.490112,89.107834 
	C1147.889893,87.828651 1134.110840,86.449677 1120.544312,87.280670 
	C1100.043335,88.536446 1080.332397,93.954948 1061.532837,102.704605 
	C1043.911621,110.905823 1027.965088,121.365425 1013.818237,134.654617 
	C1010.546814,137.727707 1006.884460,139.263168 1002.005371,139.142685 
	C986.200928,138.752457 970.380798,138.996933 953.543213,137.953873 
	C958.684021,132.637909 963.423889,126.845268 969.052979,122.109718 
	C979.315735,113.476082 992.137939,109.806740 1004.418762,105.067650 
	C1015.943298,100.620399 1024.632202,93.188248 1027.062500,80.170242 
	C1028.030884,74.982330 1030.801147,69.771255 1030.399414,64.759247 
	C1029.461792,53.063030 1031.825806,40.919655 1024.224731,29.956415 
	C1017.697021,20.541353 1010.557983,12.800542 999.258484,9.741898 
	C996.628784,9.030050 993.945618,8.167068 991.260986,8.065900 
	C978.353516,7.579504 965.437927,7.297529 952.523804,7.005185 
	C936.279663,6.637455 920.033142,6.371959 903.789551,5.981832 
	C893.206726,5.727662 882.627625,5.320018 872.046326,4.999653 
	C860.632812,4.654093 849.218323,4.339551 837.804810,3.993989 
	C827.223511,3.673625 816.642761,3.333302 806.061951,2.996083 
	C793.820312,2.605930 781.578857,2.209566 769.168640,1.407949 
	C958.570740,1.000000 1148.141479,1.000000 1338.000000,1.000000 
	C1338.000000,99.354042 1338.000000,197.708359 1338.000000,296.531342 
z"/>
<path fill="#00FDFD" opacity="1.000000" stroke="none" 
	d="
M1085.830444,552.341919 
	C1086.608154,578.603271 1087.621216,604.389099 1088.070923,630.184875 
	C1088.331421,645.130981 1083.064697,656.596191 1067.808838,662.847412 
	C1059.749268,666.149841 1052.164307,668.235291 1043.476318,668.104248 
	C992.659485,667.337280 941.970276,670.408447 891.303162,673.815918 
	C852.774536,676.407104 814.284485,679.756042 775.720642,681.553833 
	C758.312073,682.365295 743.624573,674.655762 733.315002,659.960510 
	C728.964661,653.759521 729.662842,648.077087 733.755737,641.609070 
	C757.945068,603.381592 778.089966,563.330505 786.406494,518.329529 
	C787.790100,510.843170 788.395386,503.114746 788.431091,495.493805 
	C788.623474,454.497986 788.522217,413.500732 788.522278,372.503998 
	C788.522278,371.777466 788.522339,371.050934 788.522339,370.324402 
	C788.214783,370.266296 787.907227,370.208160 787.599670,370.150055 
	C783.727539,380.831818 779.648193,391.443787 776.022461,402.208557 
	C765.496033,433.461395 750.532776,462.161438 727.938660,486.491394 
	C700.876343,515.632812 668.472656,535.453369 628.832458,542.078247 
	C583.623657,549.633728 542.475647,539.068542 505.725677,512.250122 
	C461.547180,480.010773 436.067841,435.461517 423.032166,383.078949 
	C416.871399,358.322418 416.273865,333.016388 415.179047,307.748688 
	C415.094940,305.807220 415.167999,303.858948 414.204803,301.684235 
	C410.208496,310.137177 406.181458,318.575745 402.221436,327.045654 
	C388.430603,356.542053 374.629089,386.033630 360.952026,415.582764 
	C359.879364,417.900238 359.246094,420.646210 359.236328,423.196167 
	C359.120331,453.526672 359.507446,483.863037 359.041809,514.186829 
	C358.723419,534.921570 366.881500,551.258057 383.336304,562.988708 
	C393.135529,569.974548 404.044464,575.570618 414.914093,580.844238 
	C427.331268,586.868652 432.802521,597.109375 434.963623,609.829102 
	C436.974274,621.663086 420.891266,639.527161 409.535767,642.026733 
	C333.704224,658.718262 257.889343,675.504517 182.262863,693.093445 
	C166.003891,696.874878 142.764343,680.354248 143.732361,665.741638 
	C144.669083,651.601196 148.117325,639.249023 162.434235,631.391235 
	C199.595963,610.995117 220.621292,578.238708 229.900116,537.617432 
	C236.734253,507.698578 229.818497,479.198761 219.423508,451.204742 
	C207.393341,418.807037 190.355026,388.910583 173.618698,358.859894 
	C152.913269,321.682556 132.204453,284.506866 111.374702,247.399139 
	C103.071632,232.607422 91.031700,220.979050 77.727005,210.897522 
	C63.422535,200.058441 48.569366,189.894745 33.535259,180.080276 
	C16.665865,169.067734 13.097857,146.992661 25.686718,131.558060 
	C32.956158,122.645363 41.631317,119.081017 53.004570,119.027885 
	C94.803528,118.832664 136.600357,118.106400 178.396957,117.507179 
	C204.870041,117.127647 231.353394,116.961884 257.808472,116.029091 
	C271.797333,115.535858 291.992188,134.278137 290.089294,148.816971 
	C289.138824,156.079178 285.730652,161.996033 281.743866,167.747925 
	C272.009796,181.791672 265.600159,197.007767 263.739105,214.184830 
	C261.711578,232.898483 267.081146,249.720901 275.775696,265.790985 
	C279.648865,272.949768 284.044250,279.825989 288.256775,286.921753 
	C288.873108,286.539642 289.435791,286.393555 289.624603,286.044952 
	C308.460815,251.267883 327.240326,216.453796 340.567688,179.065445 
	C342.791534,172.826706 344.308136,166.315704 345.848175,159.858170 
	C348.051300,150.620255 345.757965,142.063812 341.272034,133.953979 
	C331.740479,116.722588 317.385986,103.845383 303.019958,90.850388 
	C295.822937,84.340187 289.403961,76.875717 283.241150,69.345215 
	C278.043182,62.993713 278.840454,55.709377 283.537018,49.460152 
	C292.548096,37.470024 304.429779,29.691559 319.842896,30.103582 
	C374.251038,31.558029 428.648438,33.418861 483.048035,35.184254 
	C504.669952,35.885941 526.408264,35.588005 547.872253,37.847523 
	C569.721069,40.147560 581.517944,59.411945 573.502747,82.045357 
	C570.098572,91.658096 562.994690,98.017761 557.075989,105.513084 
	C556.459351,106.294014 555.773926,107.022217 555.184631,107.822159 
	C555.021240,108.043976 555.088867,108.436050 554.981079,109.318321 
	C561.619080,108.167862 568.068298,106.892128 574.565796,105.948837 
	C630.403076,97.842407 678.971619,112.654022 719.547363,152.265198 
	C722.116394,154.773163 724.538879,155.980270 728.208252,155.929886 
	C743.859802,155.714966 759.516113,155.838440 776.444519,155.838440 
	C772.520325,145.194412 769.300171,134.959824 765.027344,125.185432 
	C756.347656,105.329628 743.112488,89.730446 723.933960,78.500900 
	C713.768738,72.548866 706.549866,62.071095 701.628235,50.982647 
	C700.415161,48.249722 701.237976,43.952374 702.476379,40.927601 
	C705.180298,34.323608 710.545105,30.042595 716.318420,25.744144 
	C729.363586,16.031624 743.987488,17.806408 758.538025,18.201107 
	C779.667480,18.774269 800.793091,19.492224 821.919617,20.171114 
	C859.345032,21.373756 896.768860,22.626007 934.195435,23.791548 
	C951.501709,24.330500 968.822632,25.289900 986.118835,24.995735 
	C1001.407654,24.735712 1013.374512,39.214661 1013.116821,52.021442 
	C1012.965027,59.564594 1013.740112,67.008972 1011.159607,74.615326 
	C1008.323975,82.973503 1003.155151,87.865120 995.198975,90.118759 
	C960.767334,99.871872 938.044189,122.051369 925.431946,155.838348 
	C926.546753,155.838348 927.597412,155.838348 928.648071,155.838348 
	C956.645874,155.838379 984.644104,155.907547 1012.640503,155.710236 
	C1014.938477,155.694031 1017.761169,154.418701 1019.434387,152.795105 
	C1045.086792,127.903763 1074.898071,111.145531 1110.581055,105.825523 
	C1153.232910,99.466484 1192.351562,109.113838 1227.678711,133.314575 
	C1272.549438,164.053085 1299.983154,207.294662 1313.153931,259.358551 
	C1330.832031,329.239471 1322.214355,395.909393 1283.387451,457.287109 
	C1257.671265,497.939514 1222.080078,526.626526 1174.850098,539.251892 
	C1147.039307,546.686340 1119.203979,546.051392 1091.457031,538.654114 
	C1089.850220,538.225708 1088.234131,537.829651 1086.613037,537.459656 
	C1086.314331,537.391418 1085.970703,537.520813 1085.125000,537.620911 
	C1085.358521,542.345398 1085.593994,547.107971 1085.830444,552.341919 
M531.174438,500.346619 
	C583.461121,530.418518 635.260193,529.338562 685.518982,496.233765 
	C721.965942,472.226654 744.594971,437.317902 758.050842,396.339172 
	C772.268250,353.041290 773.296753,309.138245 762.410522,264.944092 
	C761.705322,262.081268 761.966797,260.214447 764.647644,258.736145 
	C769.446167,256.090118 774.005615,252.967209 778.937744,250.615631 
	C789.697815,245.485336 801.037292,242.100662 813.212891,239.971573 
	C813.658997,253.989197 814.301636,267.440735 814.473755,280.898285 
	C814.929871,316.543884 815.305847,352.191498 815.480408,387.839447 
	C815.645996,421.670837 815.409851,455.504150 815.559875,489.335724 
	C815.637329,506.785706 813.388733,523.864380 808.354919,540.544006 
	C797.564270,576.298706 784.640869,611.095764 762.923340,641.998352 
	C761.327820,644.268616 760.563660,648.344360 761.464355,650.840454 
	C762.605774,654.003540 765.971313,655.562805 770.082703,655.096130 
	C778.678223,654.120422 787.332581,653.651306 795.966492,653.027039 
	C829.835022,650.578003 863.698364,648.052612 897.576233,645.740784 
	C931.448669,643.429382 965.318481,640.982788 999.224304,639.295410 
	C1017.513428,638.385254 1035.875732,638.974548 1054.204590,638.817261 
	C1061.622925,638.753540 1063.688477,636.602295 1063.460083,629.797241 
	C1062.237305,593.363586 1061.008667,556.930115 1059.866211,520.493958 
	C1059.656860,513.817993 1059.836304,507.129913 1059.836304,500.237244 
	C1061.788818,501.312622 1063.654907,502.361023 1065.539429,503.375305 
	C1108.126343,526.295837 1151.565918,528.183960 1195.338013,507.464081 
	C1231.687378,490.257690 1257.155640,461.727600 1274.904907,426.242493 
	C1298.435791,379.198639 1304.234131,329.433167 1294.503418,278.035706 
	C1286.182129,234.082443 1266.900879,195.566498 1233.654297,164.890594 
	C1208.807251,141.964767 1179.702148,127.720200 1145.742798,125.201538 
	C1098.780884,121.718491 1059.939453,139.477097 1027.491699,172.551407 
	C1024.883301,175.210190 1022.483948,176.239471 1018.893616,176.230408 
	C978.395264,176.128265 937.896484,176.165710 897.397827,176.165710 
	C895.758728,176.165710 894.119629,176.165726 892.082336,176.165726 
	C893.153625,171.636398 893.993896,167.582977 895.074219,163.594589 
	C904.887146,127.367661 923.438049,97.271904 956.794678,78.251923 
	C966.386230,72.782784 977.243835,69.574120 987.164185,64.615311 
	C989.895691,63.249931 992.869507,59.316471 992.884155,56.546295 
	C992.895630,54.377113 988.607727,50.424335 986.061035,50.281708 
	C966.127502,49.165352 946.154053,48.745205 926.191162,48.173508 
	C897.736389,47.358620 869.278320,46.654392 840.824768,45.798710 
	C807.221558,44.788162 773.624146,43.561363 740.015808,42.795376 
	C737.363831,42.734932 734.278381,45.169731 732.178162,47.239944 
	C731.526794,47.881966 733.163025,51.348354 734.319031,53.159744 
	C735.230896,54.588673 737.002563,55.475292 738.409668,56.580830 
	C746.359009,62.826637 755.106323,68.290550 762.113953,75.456284 
	C781.217529,94.990707 791.507324,119.515770 798.982239,145.318787 
	C801.872559,155.296127 804.095947,165.466660 806.777710,176.165726 
	C803.923523,176.165726 802.120850,176.165710 800.318176,176.165710 
	C776.485657,176.165710 752.644409,175.796371 728.825073,176.356583 
	C719.917725,176.566071 712.569946,175.299545 707.303589,167.541580 
	C706.299927,166.063126 704.708557,164.967194 703.328979,163.762878 
	C664.931946,130.245804 621.034424,116.796432 570.907715,129.170319 
	C532.899170,138.552795 503.433014,161.275146 481.420441,193.006805 
	C440.326050,252.245392 431.491638,317.485901 449.747650,386.378235 
	C462.368866,434.006836 488.355713,472.970764 531.174438,500.346619 
M292.648407,329.801514 
	C276.387268,312.504517 262.115234,293.773956 251.364914,272.506531 
	C236.627243,243.350891 234.021057,213.295944 246.142975,182.775452 
	C250.335571,172.219406 256.866119,162.597458 262.228271,152.495499 
	C263.246613,150.577011 265.034119,147.480942 264.322815,146.527145 
	C262.177307,143.650330 259.799835,140.929138 255.088959,141.025024 
	C216.134995,141.817856 177.174362,142.286987 138.215454,142.831543 
	C109.073265,143.238892 79.930115,143.582855 50.789577,144.082809 
	C49.201714,144.110046 47.229027,144.918213 46.127388,146.041473 
	C41.449100,150.811539 42.433029,156.082489 48.083069,159.909912 
	C61.849884,169.235794 75.876793,178.234390 89.122772,188.258316 
	C106.184258,201.169632 121.891624,215.676712 132.546326,234.623444 
	C155.686066,275.771698 178.571472,317.062927 201.608078,358.269287 
	C219.789215,390.790558 237.207870,423.637329 248.422745,459.403564 
	C256.883514,486.386414 260.508911,513.773804 254.328613,541.604065 
	C243.443024,590.622620 217.537231,629.036621 173.211212,654.245605 
	C170.676315,655.687256 168.842484,661.261353 169.432602,664.394165 
	C169.917694,666.969421 173.765350,669.315125 178.365982,668.273315 
	C252.631256,651.456299 326.939026,634.826233 401.275116,618.324646 
	C405.808716,617.318359 409.275421,614.433594 409.514862,610.957947 
	C409.745300,607.612793 407.175354,604.011841 403.002228,601.887451 
	C392.811707,596.699951 382.450165,591.505676 373.219025,584.843262 
	C349.560974,567.768372 337.326508,544.627563 337.734924,514.896667 
	C338.176636,482.740295 337.787262,450.572968 337.916626,418.411011 
	C337.928162,415.536621 338.618439,412.458862 339.784515,409.825867 
	C359.356384,365.632019 378.977722,321.459625 398.750885,277.355469 
	C411.926514,247.967194 423.861298,217.994400 440.147308,190.064758 
	C455.709503,163.376465 472.942932,137.933823 494.544281,115.696144 
	C510.062653,99.720650 527.339050,86.066170 547.253723,75.806313 
	C550.008484,74.387077 552.103699,70.944496 553.411682,67.959801 
	C553.757507,67.170601 550.207947,64.326515 548.106201,62.944214 
	C546.862061,62.125999 544.956787,62.145542 543.338379,62.088867 
	C514.731384,61.087063 486.123688,60.101818 457.514191,59.172874 
	C412.598572,57.714470 367.679657,56.353252 322.767670,54.792866 
	C317.886841,54.623291 313.082977,55.434326 311.254242,59.743584 
	C309.393036,64.129303 313.500397,67.198624 316.766571,69.903008 
	C331.690186,82.259712 345.804840,95.434074 356.885406,111.470619 
	C367.263153,126.490067 374.531586,142.618744 370.836395,161.456284 
	C368.987640,170.880951 366.565826,180.304581 363.274414,189.316376 
	C345.235535,238.705994 319.438904,284.270111 292.648407,329.801514 
z"/>
<path fill="#000101" opacity="1.000000" stroke="none" 
	d="
M530.852722,500.174927 
	C488.355713,472.970764 462.368866,434.006836 449.747650,386.378235 
	C431.491638,317.485901 440.326050,252.245392 481.420441,193.006805 
	C503.433014,161.275146 532.899170,138.552795 570.907715,129.170319 
	C621.034424,116.796432 664.931946,130.245804 703.328979,163.762878 
	C704.708557,164.967194 706.299927,166.063126 707.303589,167.541580 
	C712.569946,175.299545 719.917725,176.566071 728.825073,176.356583 
	C752.644409,175.796371 776.485657,176.165710 800.318176,176.165710 
	C802.120850,176.165710 803.923523,176.165726 806.777710,176.165726 
	C804.095947,165.466660 801.872559,155.296127 798.982239,145.318787 
	C791.507324,119.515770 781.217529,94.990707 762.113953,75.456284 
	C755.106323,68.290550 746.359009,62.826637 738.409668,56.580830 
	C737.002563,55.475292 735.230896,54.588673 734.319031,53.159744 
	C733.163025,51.348354 731.526794,47.881966 732.178162,47.239944 
	C734.278381,45.169731 737.363831,42.734932 740.015808,42.795376 
	C773.624146,43.561363 807.221558,44.788162 840.824768,45.798710 
	C869.278320,46.654392 897.736389,47.358620 926.191162,48.173508 
	C946.154053,48.745205 966.127502,49.165352 986.061035,50.281708 
	C988.607727,50.424335 992.895630,54.377113 992.884155,56.546295 
	C992.869507,59.316471 989.895691,63.249931 987.164185,64.615311 
	C977.243835,69.574120 966.386230,72.782784 956.794678,78.251923 
	C923.438049,97.271904 904.887146,127.367661 895.074219,163.594589 
	C893.993896,167.582977 893.153625,171.636398 892.082336,176.165726 
	C894.119629,176.165726 895.758728,176.165710 897.397827,176.165710 
	C937.896484,176.165710 978.395264,176.128265 1018.893616,176.230408 
	C1022.483948,176.239471 1024.883301,175.210190 1027.491699,172.551407 
	C1059.939453,139.477097 1098.780884,121.718491 1145.742798,125.201538 
	C1179.702148,127.720200 1208.807251,141.964767 1233.654297,164.890594 
	C1266.900879,195.566498 1286.182129,234.082443 1294.503418,278.035706 
	C1304.234131,329.433167 1298.435791,379.198639 1274.904907,426.242493 
	C1257.155640,461.727600 1231.687378,490.257690 1195.338013,507.464081 
	C1151.565918,528.183960 1108.126343,526.295837 1065.539429,503.375305 
	C1063.654907,502.361023 1061.788818,501.312622 1059.836304,500.237244 
	C1059.836304,507.129913 1059.656860,513.817993 1059.866211,520.493958 
	C1061.008667,556.930115 1062.237305,593.363586 1063.460083,629.797241 
	C1063.688477,636.602295 1061.622925,638.753540 1054.204590,638.817261 
	C1035.875732,638.974548 1017.513428,638.385254 999.224304,639.295410 
	C965.318481,640.982788 931.448669,643.429382 897.576233,645.740784 
	C863.698364,648.052612 829.835022,650.578003 795.966492,653.027039 
	C787.332581,653.651306 778.678223,654.120422 770.082703,655.096130 
	C765.971313,655.562805 762.605774,654.003540 761.464355,650.840454 
	C760.563660,648.344360 761.327820,644.268616 762.923340,641.998352 
	C784.640869,611.095764 797.564270,576.298706 808.354919,540.544006 
	C813.388733,523.864380 815.637329,506.785706 815.559875,489.335724 
	C815.409851,455.504150 815.645996,421.670837 815.480408,387.839447 
	C815.305847,352.191498 814.929871,316.543884 814.473755,280.898285 
	C814.301636,267.440735 813.658997,253.989197 813.212891,239.971573 
	C801.037292,242.100662 789.697815,245.485336 778.937744,250.615631 
	C774.005615,252.967209 769.446167,256.090118 764.647644,258.736145 
	C761.966797,260.214447 761.705322,262.081268 762.410522,264.944092 
	C773.296753,309.138245 772.268250,353.041290 758.050842,396.339172 
	C744.594971,437.317902 721.965942,472.226654 685.518982,496.233765 
	C635.260193,529.338562 583.461121,530.418518 530.852722,500.174927 
M999.705811,436.764679 
	C970.885254,385.295532 963.974670,330.561798 975.495239,273.144409 
	C976.183960,269.711914 976.234619,266.803162 973.484802,264.555450 
	C967.469666,259.638702 961.762634,254.123672 955.115662,250.249802 
	C943.210083,243.311188 929.822205,240.159058 916.274902,238.155823 
	C906.661377,236.734268 896.952881,235.955048 886.014160,234.748764 
	C890.009888,336.492065 893.964111,437.177124 897.930237,538.165955 
	C916.578552,538.165955 934.390991,537.966675 952.196228,538.239624 
	C963.117554,538.406982 972.840881,535.261353 981.761658,529.278320 
	C1002.401550,515.435486 1015.411743,495.247192 1027.070435,475.622406 
	C1017.679138,462.342072 1008.863953,449.876343 999.705811,436.764679 
M1083.725464,216.252136 
	C1089.202148,209.986191 1094.769775,203.796738 1100.129272,197.432144 
	C1105.159180,191.458954 1110.450806,185.620255 1114.750122,179.140381 
	C1119.792114,171.541397 1117.353882,166.389893 1108.565063,163.967941 
	C1094.488892,160.088867 1081.349365,162.660675 1069.598511,170.820221 
	C1044.877197,187.986404 1028.314819,210.798080 1024.410767,241.236710 
	C1022.430786,256.673645 1022.829529,272.110992 1030.973022,286.309174 
	C1036.214111,295.447205 1041.063354,295.864624 1046.404907,286.691406 
	C1050.482910,279.688110 1053.748657,272.192596 1057.110352,264.795441 
	C1064.671021,248.158813 1071.796631,231.300232 1083.725464,216.252136 
M502.828918,253.555023 
	C501.748962,266.938416 503.742035,279.687775 510.612030,291.440765 
	C515.157593,299.217102 520.078125,299.644287 524.703186,292.009277 
	C528.642151,285.506775 532.150940,278.635162 534.951233,271.570587 
	C546.053528,243.562225 561.514771,218.495789 583.026367,197.211868 
	C587.235840,193.046936 590.829956,188.090179 593.945251,183.029205 
	C598.572327,175.512344 596.280457,170.335175 587.800659,168.141190 
	C577.168457,165.390350 566.385010,165.329376 556.688232,170.670502 
	C524.442200,188.432068 505.668152,215.336304 502.828918,253.555023 
M888.004578,204.520966 
	C887.720825,208.954468 887.437073,213.387970 887.208801,216.955521 
	C904.281921,219.745285 920.962158,221.771698 937.306946,225.336395 
	C953.959778,228.968277 969.173584,236.312378 981.003784,247.452667 
	C990.263611,229.144363 999.405579,211.069031 1008.309265,193.464935 
	C969.233887,193.464935 929.334839,193.464935 889.289124,193.464935 
	C888.867493,197.034744 888.479004,200.323822 888.004578,204.520966 
M730.727905,193.236893 
	C732.437134,196.326035 734.206787,199.383514 735.845154,202.509811 
	C742.983948,216.131500 750.084534,229.773224 757.231201,243.469360 
	C773.347229,232.677109 792.285095,226.831268 812.438049,222.724075 
	C811.454590,212.798172 810.495728,203.120361 809.509644,193.167236 
	C783.054382,193.167236 757.287903,193.167236 730.727905,193.236893 
z"/>
<path fill="#000101" opacity="1.000000" stroke="none" 
	d="
M292.996552,329.735535 
	C319.438904,284.270111 345.235535,238.705994 363.274414,189.316376 
	C366.565826,180.304581 368.987640,170.880951 370.836395,161.456284 
	C374.531586,142.618744 367.263153,126.490067 356.885406,111.470619 
	C345.804840,95.434074 331.690186,82.259712 316.766571,69.903008 
	C313.500397,67.198624 309.393036,64.129303 311.254242,59.743584 
	C313.082977,55.434326 317.886841,54.623291 322.767670,54.792866 
	C367.679657,56.353252 412.598572,57.714470 457.514191,59.172874 
	C486.123688,60.101818 514.731384,61.087063 543.338379,62.088867 
	C544.956787,62.145542 546.862061,62.125999 548.106201,62.944214 
	C550.207947,64.326515 553.757507,67.170601 553.411682,67.959801 
	C552.103699,70.944496 550.008484,74.387077 547.253723,75.806313 
	C527.339050,86.066170 510.062653,99.720650 494.544281,115.696144 
	C472.942932,137.933823 455.709503,163.376465 440.147308,190.064758 
	C423.861298,217.994400 411.926514,247.967194 398.750885,277.355469 
	C378.977722,321.459625 359.356384,365.632019 339.784515,409.825867 
	C338.618439,412.458862 337.928162,415.536621 337.916626,418.411011 
	C337.787262,450.572968 338.176636,482.740295 337.734924,514.896667 
	C337.326508,544.627563 349.560974,567.768372 373.219025,584.843262 
	C382.450165,591.505676 392.811707,596.699951 403.002228,601.887451 
	C407.175354,604.011841 409.745300,607.612793 409.514862,610.957947 
	C409.275421,614.433594 405.808716,617.318359 401.275116,618.324646 
	C326.939026,634.826233 252.631256,651.456299 178.365982,668.273315 
	C173.765350,669.315125 169.917694,666.969421 169.432602,664.394165 
	C168.842484,661.261353 170.676315,655.687256 173.211212,654.245605 
	C217.537231,629.036621 243.443024,590.622620 254.328613,541.604065 
	C260.508911,513.773804 256.883514,486.386414 248.422745,459.403564 
	C237.207870,423.637329 219.789215,390.790558 201.608078,358.269287 
	C178.571472,317.062927 155.686066,275.771698 132.546326,234.623444 
	C121.891624,215.676712 106.184258,201.169632 89.122772,188.258316 
	C75.876793,178.234390 61.849884,169.235794 48.083069,159.909912 
	C42.433029,156.082489 41.449100,150.811539 46.127388,146.041473 
	C47.229027,144.918213 49.201714,144.110046 50.789577,144.082809 
	C79.930115,143.582855 109.073265,143.238892 138.215454,142.831543 
	C177.174362,142.286987 216.134995,141.817856 255.088959,141.025024 
	C259.799835,140.929138 262.177307,143.650330 264.322815,146.527145 
	C265.034119,147.480942 263.246613,150.577011 262.228271,152.495499 
	C256.866119,162.597458 250.335571,172.219406 246.142975,182.775452 
	C234.021057,213.295944 236.627243,243.350891 251.364914,272.506531 
	C262.115234,293.773956 276.387268,312.504517 292.996552,329.735535 
z"/>
<path fill="#00FDFD" opacity="1.000000" stroke="none" 
	d="
M999.877319,437.087646 
	C1008.863953,449.876343 1017.679138,462.342072 1027.070435,475.622406 
	C1015.411743,495.247192 1002.401550,515.435486 981.761658,529.278320 
	C972.840881,535.261353 963.117554,538.406982 952.196228,538.239624 
	C934.390991,537.966675 916.578552,538.165955 897.930237,538.165955 
	C893.964111,437.177124 890.009888,336.492065 886.014160,234.748764 
	C896.952881,235.955048 906.661377,236.734268 916.274902,238.155823 
	C929.822205,240.159058 943.210083,243.311188 955.115662,250.249802 
	C961.762634,254.123672 967.469666,259.638702 973.484802,264.555450 
	C976.234619,266.803162 976.183960,269.711914 975.495239,273.144409 
	C963.974670,330.561798 970.885254,385.295532 999.877319,437.087646 
M953.995544,382.455872 
	C949.381348,363.098236 947.131470,343.394714 947.364990,323.571960 
	C947.523071,310.148621 949.298767,296.719299 950.860168,283.352142 
	C951.362000,279.055695 950.718140,276.247711 946.552795,274.837860 
	C935.302307,271.029938 924.030212,267.286133 911.723633,263.167847 
	C915.145508,349.268707 918.499084,433.651123 921.857971,518.168640 
	C931.667297,518.168640 940.666443,517.891663 949.639648,518.255737 
	C956.895630,518.550232 962.994690,516.177490 968.618164,511.962097 
	C981.071289,502.627167 990.061157,490.324524 998.625732,477.373535 
	C976.491638,449.317200 962.313965,417.707367 953.995544,382.455872 
z"/>
<path fill="#FDFDFD" opacity="1.000000" stroke="none" 
	d="
M1083.493896,216.524551 
	C1071.796631,231.300232 1064.671021,248.158813 1057.110352,264.795441 
	C1053.748657,272.192596 1050.482910,279.688110 1046.404907,286.691406 
	C1041.063354,295.864624 1036.214111,295.447205 1030.973022,286.309174 
	C1022.829529,272.110992 1022.430786,256.673645 1024.410767,241.236710 
	C1028.314819,210.798080 1044.877197,187.986404 1069.598511,170.820221 
	C1081.349365,162.660675 1094.488892,160.088867 1108.565063,163.967941 
	C1117.353882,166.389893 1119.792114,171.541397 1114.750122,179.140381 
	C1110.450806,185.620255 1105.159180,191.458954 1100.129272,197.432144 
	C1094.769775,203.796738 1089.202148,209.986191 1083.493896,216.524551 
z"/>
<path fill="#FDFDFD" opacity="1.000000" stroke="none" 
	d="
M502.830963,253.065918 
	C505.668152,215.336304 524.442200,188.432068 556.688232,170.670502 
	C566.385010,165.329376 577.168457,165.390350 587.800659,168.141190 
	C596.280457,170.335175 598.572327,175.512344 593.945251,183.029205 
	C590.829956,188.090179 587.235840,193.046936 583.026367,197.211868 
	C561.514771,218.495789 546.053528,243.562225 534.951233,271.570587 
	C532.150940,278.635162 528.642151,285.506775 524.703186,292.009277 
	C520.078125,299.644287 515.157593,299.217102 510.612030,291.440765 
	C503.742035,279.687775 501.748962,266.938416 502.830963,253.065918 
z"/>
<path fill="#00FCFC" opacity="1.000000" stroke="none" 
	d="
M888.047546,204.066925 
	C888.479004,200.323822 888.867493,197.034744 889.289124,193.464935 
	C929.334839,193.464935 969.233887,193.464935 1008.309265,193.464935 
	C999.405579,211.069031 990.263611,229.144363 981.003784,247.452667 
	C969.173584,236.312378 953.959778,228.968277 937.306946,225.336395 
	C920.962158,221.771698 904.281921,219.745285 887.208801,216.955521 
	C887.437073,213.387970 887.720825,208.954468 888.047546,204.066925 
z"/>
<path fill="#00FCFC" opacity="1.000000" stroke="none" 
	d="
M731.124634,193.202057 
	C757.287903,193.167236 783.054382,193.167236 809.509644,193.167236 
	C810.495728,203.120361 811.454590,212.798172 812.438049,222.724075 
	C792.285095,226.831268 773.347229,232.677109 757.231201,243.469360 
	C750.084534,229.773224 742.983948,216.131500 735.845154,202.509811 
	C734.206787,199.383514 732.437134,196.326035 731.124634,193.202057 
z"/>
<path fill="#000303" opacity="1.000000" stroke="none" 
	d="
M954.062988,382.870239 
	C962.313965,417.707367 976.491638,449.317200 998.625732,477.373535 
	C990.061157,490.324524 981.071289,502.627167 968.618164,511.962097 
	C962.994690,516.177490 956.895630,518.550232 949.639648,518.255737 
	C940.666443,517.891663 931.667297,518.168640 921.857971,518.168640 
	C918.499084,433.651123 915.145508,349.268707 911.723633,263.167847 
	C924.030212,267.286133 935.302307,271.029938 946.552795,274.837860 
	C950.718140,276.247711 951.362000,279.055695 950.860168,283.352142 
	C949.298767,296.719299 947.523071,310.148621 947.364990,323.571960 
	C947.131470,343.394714 949.381348,363.098236 954.062988,382.870239 
M933.996826,370.533508 
	C933.885071,369.521912 933.773254,368.510284 933.661499,367.498688 
	C933.447510,381.368683 934.322876,395.162476 934.978027,408.966705 
	C935.752502,425.282684 936.415894,441.604919 936.978516,457.929596 
	C937.434509,471.163849 937.663696,484.405884 938.015259,497.643860 
	C938.044250,498.738373 938.239624,499.828491 938.296143,500.351105 
	C958.905518,505.544312 966.909363,489.966492 977.247742,477.941345 
	C961.366821,454.750946 949.271118,430.049561 941.741028,403.248535 
	C938.787476,392.736115 936.558533,382.020081 933.996826,370.533508 
M930.996826,299.408661 
	C931.525208,295.371338 932.053650,291.334015 932.589722,287.238373 
	C929.682434,287.962524 929.074280,292.546814 930.578918,303.747986 
	C930.814270,301.789276 930.905396,301.030853 930.996826,299.408661 
z"/>
<path fill="#FFFFFF" opacity="1.000000" stroke="none" 
	d="
M933.998169,370.965149 
	C936.558533,382.020081 938.787476,392.736115 941.741028,403.248535 
	C949.271118,430.049561 961.366821,454.750946 977.247742,477.941345 
	C966.909363,489.966492 958.905518,505.544312 938.296143,500.351105 
	C938.239624,499.828491 938.044250,498.738373 938.015259,497.643860 
	C937.663696,484.405884 937.434509,471.163849 936.978516,457.929596 
	C936.415894,441.604919 935.752502,425.282684 934.978027,408.966705 
	C934.322876,395.162476 933.447510,381.368683 933.661499,367.498688 
	C933.773254,368.510284 933.885071,369.521912 933.998169,370.965149 
z"/>
<path fill="#FFFFFF" opacity="1.000000" stroke="none" 
	d="
M930.996704,299.840576 
	C930.905396,301.030853 930.814270,301.789276 930.578918,303.747986 
	C929.074280,292.546814 929.682434,287.962524 932.589722,287.238373 
	C932.053650,291.334015 931.525208,295.371338 930.996704,299.840576 
z"/>
</svg>